<?xml version="1.0" encoding="UTF-8" standalone="no"?>
<!-- Created with Inkscape (http://www.inkscape.org/) -->

<svg
   width="160.39998mm"
   height="149.05998mm"
   viewBox="0 0 160.39998 149.05998"
   version="1.1"
   id="svg1"
   xml:space="preserve"
   xmlns:inkscape="http://www.inkscape.org/namespaces/inkscape"
   xmlns:sodipodi="http://sodipodi.sourceforge.net/DTD/sodipodi-0.dtd"
   xmlns="http://www.w3.org/2000/svg"
   xmlns:svg="http://www.w3.org/2000/svg"><sodipodi:namedview
     id="namedview1"
     pagecolor="#ffffff"
     bordercolor="#000000"
     borderopacity="0.25"
     inkscape:showpageshadow="2"
     inkscape:pageopacity="0.0"
     inkscape:pagecheckerboard="0"
     inkscape:deskcolor="#d1d1d1"
     inkscape:document-units="mm"
     inkscape:export-bgcolor="#ffffff00" /><defs
     id="defs1"><style
       type="text/css"
       id="style1">
   
    .fil0 {fill:black;fill-rule:nonzero}
   
  </style></defs><g
     inkscape:label="Capa 1"
     inkscape:groupmode="layer"
     id="layer1"
     style="display:inline"
     transform="translate(-27.915202,-62.561361)"><g
       id="g29"><g
         style="clip-rule:evenodd;fill-rule:evenodd;image-rendering:optimizeQuality;shape-rendering:geometricPrecision;text-rendering:geometricPrecision"
         id="g22"
         transform="matrix(0.001604,0,0,0.001604,27.95349,51.187573)"><g
           id="g1"><path
             class="fil0"
             d="m 39869.39,35537.19 c 6811.32,-2742.62 13198.67,-4184.7 18302.09,-4211.36 5198.68,-27.16 9104.83,1415.91 10854.93,4447.19 2200.12,3810.7 515.03,9332.36 -3987.92,15179.08 -1820.55,2363.83 -4106.27,4789.09 -6782.7,7180.21 -15.12,24.15 -32.37,47.39 -51.81,69.47 -49.44,56.17 -108.1,99.4 -171.7,129.49 -3755.16,3325.24 -8263.78,6579.17 -13327.78,9504.03 l 1.01,1.63 -14.7,6.33 c -8808.14,5085.36 -17641.35,8219.2 -24802.24,9174.95 -1152.96,153.87 -2263.7,250.93 -3325.84,290.7 -129.92,60.57 -282.23,67.64 -420.57,12.6 -5426.35,126.57 -9522.96,-1288.45 -11349.75,-4370.83 l -0.37,-0.36 -4.18,-7.24 c -11.89,-19.88 -24.04,-39.56 -35.63,-59.64 l 0.9,-0.51 -0.91,-1.57 C 2872.51,69625.59 3824.4,65129.32 6945.2,60249.07 c 3061.87,-4788.06 8228.04,-9982.73 14844.26,-14734.23 -188.87,-436.98 -370.8,-874.06 -545.45,-1311.09 C 12628.66,50112.1 6232.39,56596.87 3128.71,63293.73 266.84,69468.85 217.47,75836.66 3837.07,82107.06 l 0.88,-0.51 c 3397.63,5884.87 9250.97,8856.25 16246.48,9598.06 8032.34,851.75 17561.41,-1221.03 26642.35,-5199.46 3101.45,-1358.78 6153.97,-2942.7 9079.97,-4711.06 2900.7,-1753.09 5669.5,-3683.32 8230.54,-5750.9 559.08,-451.35 1104.43,-905.82 1635.16,-1362.88 524.55,-451.75 1046.82,-916.71 1566.14,-1394.53 743.72,-684.33 1460.13,-1376.45 2146.72,-2075 687.5,-699.47 1346.06,-1405.03 1973.27,-2115.3 4264.21,-4828.91 7285.54,-10074.15 8371.7,-15370.77 973.69,-4748.22 389.08,-9546.89 -2257.83,-14131.47 -3307.55,-5728.86 -8438.6,-8792.47 -14740.81,-9634.31 -6757.03,-902.59 -14865.06,732.48 -23533.7,4367.5 216.52,401.41 440.54,805.13 671.45,1210.76 z M 66469.2,68179.5 c 167.68,-178.21 448.09,-186.76 626.3,-19.09 178.21,167.68 186.76,448.08 19.09,626.3 -561.68,599.41 -1139.03,1185.54 -1730.09,1758.89 -597.6,579.72 -1198.8,1137.16 -1802.58,1673.73 -183,162.88 -463.41,146.57 -626.29,-36.43 -162.88,-183.01 -146.58,-463.42 36.43,-626.3 610.47,-542.52 1202.94,-1091.21 1774.82,-1645.96 578.44,-561.12 1146.43,-1137.9 1702.32,-1731.14 z m -5627.37,5198.55 c 190.67,-153.31 469.54,-123.01 622.84,67.66 153.3,190.67 123.01,469.54 -67.66,622.84 -2336.11,1885.98 -4856.07,3643.26 -7491.07,5235.74 -2653.92,1603.94 -5431.1,3044.29 -8260.98,4284.1 -224.19,97.73 -485.19,-4.8 -582.92,-229 -97.73,-224.2 4.8,-485.2 229,-582.93 2786.4,-1220.76 5528.59,-2643.63 8156.88,-4232.06 2605.66,-1574.76 5093.02,-3308.8 7393.91,-5166.35 z M 79670.3,70799.36 c -348.28,-1055.72 -763.89,-2143.04 -1244.53,-3256.57 -521.94,-1209.22 -1118.72,-2445.23 -1787.3,-3701.08 -919.12,1469.1 -1959.27,2914.42 -3105,4327.87 2131.04,1093.54 4189.51,1975.44 6136.83,2629.78 z m -2393.51,-8015.52 c 808.36,1479.18 1519.08,2928.87 2127.48,4338.41 601.37,1393.26 1105.17,2752.58 1506.99,4067.76 1571.95,460.31 3061.85,761.95 4447.69,895.77 3342.45,322.77 6061.84,-334.18 7831.87,-2104.21 3081.75,-3081.76 2796.22,-9009.82 -156.66,-16102.9 C 90022.28,46643.86 84241.35,38250.98 76405.3,30414.92 l -0.12,-0.12 C 68569.06,22578.69 60176.15,16797.73 52941.33,13785.84 45848.22,10832.95 39920.15,10547.41 36838.4,13629.16 c -2509.35,2509.36 -2785.95,6906 -1207.96,12282.07 1615.15,503.7 3300.83,1160.72 5035.59,1962.17 1743.86,805.67 3545.9,1760.8 5384.26,2856.25 6104.27,-1816.72 11810.59,-2493.14 16818.75,-1824.15 6631.73,885.87 12034.8,4116.14 15523.61,10158.93 2786.92,4827.1 3402.95,9877.26 2378.57,14872.64 -613.55,2991.94 -1816.81,5960.87 -3494.43,8846.77 z M 44676.02,31156 c -1514.28,-871.87 -3003.8,-1645.9 -4455.51,-2316.59 -1447.27,-668.65 -2850.93,-1232.12 -4198.11,-1685.14 282.5,839.31 607.08,1699.6 972.68,2577.84 494.53,1187.88 1064.05,2407.11 1704.84,3649.88 2023.55,-851.25 4018.71,-1595.19 5976.1,-2225.99 z M 22230.3,46507.49 c -6422.58,4638.7 -11426.96,9678.72 -14389.87,14312.03 -2881.71,4506.34 -3816.47,8589.5 -2205.05,11466.82 l 37.05,64.14 c 1594.95,2762.53 5350.62,4027.99 10392.5,3913.08 1582.72,-2496.92 3737.51,-5103.78 6371.96,-7700.3 2568.96,-2532 5599.46,-5059.17 9004.99,-7469.42 -3769.98,-4652.6 -6936.76,-9603.1 -9211.58,-14586.35 z m 9886.92,15408.87 c -3379.08,2386.91 -6386.35,4892.71 -8935.02,7404.7 -2357.33,2323.4 -4317.52,4647.76 -5811.75,6883.51 768.63,-50.83 1562.91,-130.65 2380.72,-239.79 5714.43,-762.69 12525.64,-2945 19539.05,-6427.49 -642.34,-604.98 -1267.34,-1211.25 -1874.11,-1818.01 -1860.9,-1860.92 -3634.86,-3802.52 -5298.89,-5802.92 z m 8183.62,7110.5 c 1279.06,-656.19 2563.34,-1354.85 3847.56,-2095.99 l -0.96,-1.57 14.69,-6.32 c 4854.93,-2802.99 9189.5,-5909.13 12824.86,-9085.58 -610.23,-544.17 -1226.94,-1108.5 -1849.58,-1692.91 -778.24,-730.44 -1534.65,-1462.51 -2267.03,-2194.89 -7933.29,-7933.3 -13794.66,-16451.17 -16857.94,-23809.45 -3122.29,-7499.98 -3344.87,-13847.46 72.31,-17264.64 3417.18,-3417.18 9764.63,-3194.59 17264.63,-72.32 7358.26,3063.28 15876.12,8924.63 23809.41,16857.92 l 0.16,0.16 c 7933.26,7933.27 13794.59,16451.11 16857.85,23809.35 3122.28,7499.98 3344.86,13847.41 -72.32,17264.6 -2009.12,2009.12 -5022.25,2761.9 -8685.47,2408.16 -3610.82,-348.68 -7869.98,-1776.79 -12420.59,-4135.69 -224.61,265.02 -452.69,528.9 -684.55,791.46 -647.58,733.34 -1318.56,1452.69 -2010.75,2156.94 -707.33,719.64 -1436.16,1424.2 -2184.2,2112.49 -511.34,470.49 -1042.03,942.47 -1591.12,1415.34 -548.66,472.51 -1103.69,935.27 -1664.3,1387.86 -2101.51,1696.6 -4336.4,3299.6 -6664.31,4787.94 6606.92,3368.04 13300.82,5326.97 19401.01,5250.81 5662.95,-70.71 10819.96,-1902.18 14919.23,-6001.46 C 98685.58,74582.93 100156.84,66814.33 97931.8,58376.9 95454.81,48983.99 88421.3,38753.6 78401.6,28733.9 68836.64,19168.94 58910.27,12338.34 49747.82,9548.47 40688.09,6789.87 32372.47,7999.01 25910.91,14460.57 c -232.45,232.45 -445.3,452.98 -638.78,661.73 -6313.96,6812.05 -7122.37,15714.08 -4363.32,24911.08 2785.1,9283.84 9193.92,18865.18 17260.96,26932.24 709.68,709.69 1420.47,1397.15 2131.07,2061.24 z m 16692.48,13289.97 c -211.62,130.66 -423.95,260.38 -636.96,389.12 -2956.9,1787.04 -6051.41,3391.95 -9204.88,4773.52 -9239.12,4047.74 -18956.54,6154.26 -27175.3,5282.74 C 12648.02,91985.12 6504.59,88852.09 2917.75,82639.51 v -2.08 C -893.73,76035.75 -845.07,69338.13 2162.7,62848.21 c 3211.92,-6930.38 9813.56,-13609.01 18688,-19661.1 -356.12,-951.5 -677.71,-1902.06 -962.03,-2849.78 -2863.91,-9546.57 -2002.54,-18810.93 4604.83,-25939.54 228.63,-246.66 449.94,-477.06 663.75,-690.87 6772.49,-6772.49 15456.23,-8049.56 24898.69,-5174.41 9339.75,2843.86 19418.55,9766.97 29099.29,19447.72 10145.84,10145.83 17277.03,20539.73 19805.03,30126.02 2323.36,8810.3 778.35,16930.94 -5847.18,23556.48 -4309.95,4309.95 -9722.45,6235.43 -15660.39,6309.56 -6456.12,80.61 -13526.28,-2036.11 -20459.37,-5655.46 z m 795.4,-25191.41 c 2521.56,-2275.56 4679.84,-4578.1 6408.69,-6822.87 502.92,-653.01 968.75,-1300.31 1396.71,-1939.91 -1935.02,126.92 -4030.94,440.59 -6245.69,935.36 -2350.46,525.09 -4833.89,1254.26 -7400.16,2180.73 547.65,574.88 1106.1,1147.55 1675.77,1717.21 761.35,761.36 1508.99,1486.08 2242.03,2174.09 629.33,590.69 1270.62,1176.02 1922.65,1755.39 z m -6632.85,-6488.08 c 2761.2,-1016.68 5435.76,-1811.43 7963.55,-2376.14 2563.51,-572.68 4977.21,-908.77 7178.84,-999.98 2620.5,-4308.49 3402.59,-8193.24 1807.95,-10955.24 -1542.74,-2672.12 -5120.22,-3943.51 -9930.56,-3918.38 -4938.56,25.79 -11135.38,1421.54 -17768.29,4076.79 2731.16,4615.88 6363.92,9459.93 10748.51,14172.95 z"
             id="path1" /></g><text
           x="0"
           y="100015"
           fill="#000000"
           font-size="5px"
           font-weight="bold"
           font-family="'Helvetica Neue', Helvetica, Arial-Unicode, Arial, Sans-serif"
           id="text1">Created by Oleksandr Panasovskyi</text><text
           x="0"
           y="100020"
           fill="#000000"
           font-size="5px"
           font-weight="bold"
           font-family="'Helvetica Neue', Helvetica, Arial-Unicode, Arial, Sans-serif"
           id="text2">from the Noun Project</text></g><path
         style="fill:#e0218a;fill-opacity:1;stroke:#ff8080;stroke-width:0;stroke-dasharray:none;stroke-opacity:1"
         d="m 351.11795,242.45572 c -44.0515,0.23125 -85.93339,25.98303 -108.60236,63.31878 -14.51751,23.19911 -20.77516,50.91151 -19.55507,78.12355 1.5617,47.42516 21.55281,92.03255 46.10494,131.83901 22.05066,35.70032 50.24884,67.09016 80.04194,96.45501 3.71425,-0.0762 7.14701,-3.42579 10.71884,-4.8225 32.49808,-17.59638 63.19048,-38.54941 91.34217,-62.49746 0.38368,-3.06459 -4.37519,-4.62281 -6.14172,-7.03892 -25.25066,-24.06829 -49.59586,-49.29451 -70.4136,-77.3925 -25.07889,-33.71883 -47.70439,-70.29971 -59.21673,-110.98606 -5.65633,-20.94729 -8.94334,-44.54383 0.76167,-64.8445 6.44859,-14.39022 20.76889,-23.92486 36.26645,-26.19126 27.81735,-4.23314 55.56638,4.36396 80.88625,15.16287 48.1436,21.50881 90.78541,53.68299 128.97216,89.69561 38.12293,36.58066 72.39282,77.86159 98.05833,124.23134 15.52783,29.76028 30.11099,62.00332 28.99021,96.2693 -0.39266,15.58924 -6.02961,32.20852 -18.86624,41.8103 -12.99331,9.8203 -29.81239,11.96413 -45.60053,10.56429 -27.24367,-1.86653 -52.69863,-12.67886 -77.02879,-24.49446 -3.79963,1.601 -5.94018,6.1546 -9.10066,8.85868 -23.75678,25.85032 -51.4145,47.90304 -80.75069,67.09018 -0.65451,3.32041 5.67158,3.65838 7.90004,5.63123 29.20979,14.04026 60.67803,24.18451 93.03796,27.23601 20.34554,0.74206 41.18946,0.0818 60.51695,-6.99582 33.41677,-11.34672 60.36342,-38.19562 75.11018,-69.88345 14.66493,-31.66694 13.89187,-68.46582 3.93001,-101.37179 C 684.0024,493.7467 654.97065,451.13865 622.92158,412.58987 597.75729,382.62701 569.73392,355.1297 540.30796,329.37838 501.80832,296.98752 459.17582,268.06731 411.13771,251.98957 c -19.3234,-6.33646 -39.64696,-9.94863 -60.01976,-9.53385 z"
         id="path24"
         transform="scale(0.26458333)" /><g
         id="g28"><path
           style="fill:#e0d721;fill-opacity:1;stroke:#ff8080;stroke-width:0;stroke-dasharray:none;stroke-opacity:1"
           d="m 460.17833,373.24591 c -32.52434,-0.0266 -64.34691,8.66853 -94.90359,19.1077 -7.31517,2.99317 -15.17423,5.19268 -22.10408,8.86472 0.19584,2.87254 2.35252,5.81169 4.38235,7.77986 10.46951,-3.0971 20.6401,-7.67266 31.19589,-10.68033 27.24779,-8.32493 55.47434,-14.919 84.13735,-13.88618 15.91909,-0.2311 32.12568,2.95109 45.96859,11.08459 11.43746,7.14978 19.22634,19.76479 20.04274,33.3789 1.67271,23.30441 -10.02759,45.11977 -22.78208,63.90777 -26.60796,37.6232 -62.59609,67.49068 -100.48186,93.12403 -51.65678,34.13858 -109.09379,61.11438 -170.1931,72.42479 -19.68612,3.25318 -39.92345,3.86508 -59.71808,1.24589 -13.20892,-2.4557 -26.89273,-7.62846 -35.77194,-18.15363 -11.13799,-11.20195 -11.87098,-28.52954 -8.8981,-43.11325 5.77684,-26.85977 23.08006,-49.64847 41.04972,-69.82127 18.28789,-20.18628 38.61666,-38.51606 60.50539,-54.77436 1.97289,-2.07232 6.80198,-4.00291 4.38059,-7.53461 -0.68871,-2.86098 -2.32293,-7.30045 -5.38467,-3.41351 -34.60477,24.30845 -67.6593,52.14279 -91.77961,87.23871 -18.54348,26.67069 -31.41854,59.09671 -27.8643,92.05702 3.90056,34.92476 23.09979,68.69414 53.16789,87.50817 27.23918,17.0979 60.29318,22.73437 92.05127,21.21864 38.26431,-0.85346 75.79794,-10.72015 111.47788,-24.05808 60.25815,-23.22258 116.45402,-58.33494 161.37964,-104.95732 28.20345,-29.58191 52.83438,-65.05997 60.08315,-106.0238 4.56859,-25.65616 1.34889,-52.89511 -10.96878,-76.03639 -12.90004,-26.64261 -36.10591,-48.22603 -64.15091,-58.03582 -17.52408,-6.46185 -36.18867,-9.07472 -54.82135,-8.45224 z m 50.72794,233.68971 c 2.73074,0.22327 0.63229,4.00689 -0.68425,4.83983 -6.71289,6.62042 -13.00336,13.94326 -20.73047,19.37252 -2.22914,0.16439 -2.60574,-2.50229 -0.7963,-3.4687 6.85368,-7.11815 13.5657,-14.59067 21.4569,-20.55643 0.23521,-0.11062 0.4906,-0.19913 0.75412,-0.18722 z m -34.20448,31.74567 c 2.15059,0.27012 0.95724,3.73695 -0.53922,4.29138 -28.76302,23.03774 -60.74398,42.15973 -94.49342,56.78728 -1.96848,0.91074 -3.25152,-2.89886 -0.80818,-3.30522 17.7846,-9.88246 36.46782,-18.25082 53.67241,-29.23336 13.9438,-8.29477 26.7166,-18.43564 39.94955,-27.66072 0.69287,-0.35863 1.41259,-0.86713 2.21886,-0.87936 z"
           id="path25"
           transform="scale(0.26458333)" /><path
           style="fill:#a09b17;fill-opacity:1;stroke:#ff8080;stroke-width:0;stroke-dasharray:none;stroke-opacity:1"
           d="m 239.94945,475.34912 c -13.72281,9.38149 -26.5059,20.22474 -38.92697,31.29082 -24.18525,22.43143 -47.192,47.59559 -60.38163,78.23114 -6.29795,14.97195 -9.6633,33.45617 -0.60211,48.08309 9.34976,14.89803 27.5635,20.78786 44.17683,22.67642 6.33248,0.37004 12.95599,1.62683 19.14311,0.70534 23.63469,-36.6714 57.23748,-65.5615 91.98319,-91.37541 2.5672,-2.06072 -1.81042,-4.50932 -2.54714,-6.44169 -20.27892,-25.49299 -37.55084,-53.31167 -51.67718,-82.67531 -0.34022,-0.2897 -0.65077,-0.69379 -1.1681,-0.4944 z"
           id="path26"
           transform="scale(0.26458333)" /><path
           style="fill:#a09b17;fill-opacity:1;stroke:#ff8080;stroke-width:0;stroke-dasharray:none;stroke-opacity:1"
           d="m 457.7248,389.31189 c -36.55056,0.57658 -72.22237,10.9421 -106.00434,24.23872 -2.55914,1.74348 1.1778,4.70492 1.79961,6.69745 17.6143,28.83804 38.79088,55.37075 61.55592,80.28902 6.25987,-0.65832 12.41208,-3.84669 18.64293,-5.49522 23.90305,-7.7561 48.60977,-12.87197 73.6936,-14.60768 5.98841,-8.04881 10.07248,-17.75706 13.28943,-27.34566 4.89549,-14.77223 5.22059,-32.90265 -5.6401,-45.20438 C 500.9427,392.0482 477.68694,389.35827 457.7248,389.31189 Z"
           id="path27"
           transform="scale(0.26458333)" /><path
           style="fill:#871352;fill-opacity:1;stroke:#ff8080;stroke-width:0;stroke-dasharray:none;stroke-opacity:1"
           d="m 365.62295,262.20926 c -17.10536,-0.0563 -35.70042,7.20531 -43.94084,23.05875 -7.51526,13.54413 -7.03344,29.78253 -5.24458,44.68473 1.29653,7.10728 2.52085,14.56705 5.21294,21.15862 21.24754,6.95322 41.39302,16.83452 60.87827,27.72983 4.6648,2.57823 9.71789,-1.33027 14.48027,-1.72218 22.68512,-6.19857 46.15795,-9.52033 69.70722,-8.85978 36.26847,-0.53728 73.40154,12.77751 97.71986,40.30539 21.00336,23.74065 33.65378,55.04491 32.83437,86.77666 -0.27847,27.61969 -9.836,54.41487 -23.40022,78.2521 3.08373,8.33969 8.05281,16.2019 11.43137,24.53725 4.2044,8.87165 7.06132,18.38533 10.7661,27.33655 11.3924,3.38913 23.3543,6.00232 35.33467,6.02848 15.5734,0.38285 32.51707,-4.16135 42.50382,-16.88697 11.90858,-15.30436 11.82378,-36.21424 8.61246,-54.45365 -6.77727,-35.17435 -23.95418,-67.35705 -43.13481,-97.23699 C 605.83223,412.34458 563.4965,367.73958 515.78521,330.31981 481.09943,303.77984 443.31853,279.7602 401.0087,267.60413 c -11.52181,-3.10531 -23.40683,-5.47382 -35.38575,-5.39487 z"
           id="path28"
           transform="scale(0.26458333)" /></g></g></g></svg>
