<svg xmlns="http://www.w3.org/2000/svg" enable-background="new 0 0 100 100" viewBox="0 0 100 125" x="0px" y="0px"><path d="m75.4889526 20.3245544c-3.9743652-1.6816406-8.1934814-2.5339355-12.5393677-2.5339355-14.4252319 0-27.1899414 9.6981201-31.0410156 23.5845337l.0014648.0004272c-.7763062 2.7976685-1.1707153 5.6990967-1.1707153 8.6244507 0 5.0858765 1.2172241 9.8820801 3.3255005 14.163269.9640503.2029419 1.9620361.3129883 2.9855957.3129883 3.6776123 0 7.0285645-1.3897705 9.5849609-3.6573486-2.0646362-3.1022339-3.2739258-6.8208008-3.2739258-10.8189087 0-1.784668.2394409-3.5517578.7095947-5.2501221l.00177-.0009155c2.340271-8.4407959 10.1022339-14.3363037 18.87677-14.3363037 2.6466675 0 5.2122803.5168457 7.6229248 1.5372925 7.2672119 3.0736084 11.963501 10.1594849 11.963501 18.0500488 0 8.5200806-5.4781494 15.7674561-13.0891724 18.4558716-3.0661011 5.3601685-7.4203491 9.8746948-12.6418457 13.1499634 1.9910889.3860474 4.0421143.6035156 6.1445923.6035156 17.760376 0 32.2085571-14.4490356 32.2085571-32.2093506.0000002-12.9733887-7.7197874-24.6217041-19.6691893-29.6754761z"/><path d="m69.2606201 50.0000305c0-5.0872803-1.2176514-9.8843384-3.3271484-14.1664429-.9724731-.2029419-1.968689-.3098755-2.9838867-.3098755-3.6229858 0-6.9827881 1.3937378-9.5704346 3.6811523 2.0549927 3.0978394 3.2593994 6.8071289 3.2593994 10.795166 0 10.800415-8.7868652 19.5872803-19.5881348 19.5872803-10.7995605 0-19.5864258-8.7868652-19.5864258-19.5872803 0-8.5007324 5.4530029-15.7331543 13.0363159-18.4365845 3.085083-5.4103394 7.4727783-9.9151611 12.673584-13.1723633-1.9849854-.3838501-4.0285034-.6004639-6.1234741-.6004639-17.760376 0-32.2085571 14.4490356-32.2085571 32.2094116 0 17.7603149 14.4481812 32.2093506 32.2085571 32.2093506 17.760315.0000002 32.2102051-14.4490354 32.2102051-32.2093504z"/><text x="0" y="115" fill="#000000" font-size="5px" font-weight="bold" font-family="'Helvetica Neue', Helvetica, Arial-Unicode, Arial, Sans-serif">Created by Eliricon</text><text x="0" y="120" fill="#000000" font-size="5px" font-weight="bold" font-family="'Helvetica Neue', Helvetica, Arial-Unicode, Arial, Sans-serif">from the Noun Project</text></svg>