<?xml version="1.0" encoding="UTF-8" standalone="no"?>
<svg
   width="19.542358mm"
   height="18.985527mm"
   viewBox="0 0 19.542358 18.985527"
   version="1.1"
   id="svg5"
   xml:space="preserve"
   xmlns="http://www.w3.org/2000/svg"
   xmlns:svg="http://www.w3.org/2000/svg"><defs
     id="defs2" /><g
     id="layer1"
     transform="translate(-87.095247,-99.802243)"><g
       id="g218"
       transform="matrix(0.26458333,0,0,0.26458333,83.635107,96.052505)"><g
         id="g196"><rect
           x="24.5"
           y="19.299999"
           transform="matrix(0.9546,-0.2979,0.2979,0.9546,-5.7624,8.9963)"
           width="4.3000002"
           height="8.1999998"
           id="rect182" /><rect
           x="32.799999"
           y="22.1"
           transform="matrix(0.4644,-0.8856,0.8856,0.4644,-1.4023,46.1912)"
           width="9.3000002"
           height="4.3000002"
           id="rect184" /><rect
           x="16.1"
           y="25.6"
           transform="matrix(0.4644,-0.8856,0.8856,0.4644,-17.0705,32.3259)"
           width="4.3000002"
           height="9.3000002"
           id="rect186" /><path
           d="m 78.1,42.2 4,-5 L 76,30 64,27.9 l -8.2,4.7 2.1,6.1 c -3.2,1 -6.1,2.7 -8.5,5 -2,-1 -4.1,-1.7 -6.3,-2.1 l 1.3,-6.3 -8.8,-3.6 -11.7,3.6 -5.2,7.9 4.7,4.5 c -5.7,5.7 -8.2,14.3 -5.6,22.5 3.7,11.8 16.2,18.4 28,14.7 3.3,-1 6.2,-2.8 8.6,-5 1.9,1 4.1,1.7 6.3,2.1 12.1,2.1 23.8,-6 25.9,-18.2 1.5,-8.5 -2.1,-16.7 -8.5,-21.6 z m -6.7,-8.7 2.4,0.4 2.9,3.3 -0.1,0.1 -5.7,-1 z m -1.3,7 3.4,0.6 -1.8,2.2 -2.7,3.3 z m -5.3,-8.2 2.4,0.4 -0.5,2.8 -5.7,-1 v -0.1 z m 1.1,7.5 -1.1,6.2 -1.4,-4.1 -0.9,-2.7 z m -30.5,-3.7 4.1,1.7 v 0.1 L 34,39.6 33.1,36.8 Z m 3.1,6.5 -0.6,2.8 -0.9,4.2 -1.9,-6 z m -5.5,8.3 -3.1,-3 -2.1,-2 3.3,-1 z m -6.3,-12 2.3,-0.7 0.9,2.8 -5.5,1.7 -0.1,-0.1 z M 44.5,80.8 C 35,83.8 24.8,78.4 21.8,68.9 19.7,62.2 21.7,55.2 26.4,50.6 l 6.1,5.8 8,-2.5 1.7,-8.2 c 1.5,0.3 2.9,0.7 4.2,1.3 -1.9,2.6 -3.2,5.7 -3.8,9.1 -1.5,8.3 1.9,16.4 8.1,21.4 -1.8,1.4 -3.8,2.6 -6.2,3.3 z m 9.1,-6.5 c -5.2,-4 -8.1,-10.6 -6.9,-17.5 0.5,-2.9 1.7,-5.5 3.3,-7.7 2.9,2.2 5.2,5.3 6.3,9 1.9,5.8 0.7,11.7 -2.7,16.2 z M 82.4,63.1 c -1.7,9.8 -11.1,16.4 -21,14.7 -1.5,-0.3 -2.8,-0.7 -4.1,-1.3 3.9,-5.5 5.3,-12.7 3.2,-19.7 -1.4,-4.4 -4,-8.1 -7.4,-10.8 1.8,-1.5 3.9,-2.7 6.2,-3.4 l 2.7,8 8.2,1.4 5.3,-6.6 c 5.2,4.1 8.1,10.8 6.9,17.7 z"
           id="path188" /><rect
           x="67.699997"
           y="16.4"
           transform="matrix(0.1726,-0.985,0.985,0.1726,41.1416,86.1031)"
           width="8.1999998"
           height="4.3000002"
           id="rect190" /><rect
           x="76.400002"
           y="22.200001"
           transform="matrix(0.8186,-0.5744,0.5744,0.8186,0.7574,50.9812)"
           width="9.3000002"
           height="4.3000002"
           id="rect192" /><rect
           x="59"
           y="16.1"
           transform="matrix(0.8186,-0.5744,0.5744,0.8186,-0.8512,38.9091)"
           width="4.3000002"
           height="9.3000002"
           id="rect194" /></g><text
         x="0"
         y="115"
         fill="#000000"
         font-size="5px"
         font-weight="bold"
         font-family="'Helvetica Neue', Helvetica, Arial-Unicode, Arial, Sans-serif"
         id="text198" /><text
         x="0"
         y="120"
         fill="#000000"
         font-size="5px"
         font-weight="bold"
         font-family="'Helvetica Neue', Helvetica, Arial-Unicode, Arial, Sans-serif"
         id="text200" /></g></g></svg>
