<svg xmlns="http://www.w3.org/2000/svg" xmlns:xlink="http://www.w3.org/1999/xlink" xmlns:xodm="http://www.corel.com/coreldraw/odm/2003" xml:space="preserve" version="1.1" style="shape-rendering:geometricPrecision;text-rendering:geometricPrecision;image-rendering:optimizeQuality;" viewBox="0 0 100000 125000" x="0px" y="0px" fill-rule="evenodd" clip-rule="evenodd"><defs><style type="text/css">
   
    .fil0 {fill:black;fill-rule:nonzero}
   
  </style></defs><g><path class="fil0" d="M39869.39 35537.19c6811.32,-2742.62 13198.67,-4184.7 18302.09,-4211.36 5198.68,-27.16 9104.83,1415.91 10854.93,4447.19 2200.12,3810.7 515.03,9332.36 -3987.92,15179.08 -1820.55,2363.83 -4106.27,4789.09 -6782.7,7180.21 -15.12,24.15 -32.37,47.39 -51.81,69.47 -49.44,56.17 -108.1,99.4 -171.7,129.49 -3755.16,3325.24 -8263.78,6579.17 -13327.78,9504.03l1.01 1.63 -14.7 6.33c-8808.14,5085.36 -17641.35,8219.2 -24802.24,9174.95 -1152.96,153.87 -2263.7,250.93 -3325.84,290.7 -129.92,60.57 -282.23,67.64 -420.57,12.6 -5426.35,126.57 -9522.96,-1288.45 -11349.75,-4370.83l-0.37 -0.36 -4.18 -7.24c-11.89,-19.88 -24.04,-39.56 -35.63,-59.64l0.9 -0.51 -0.91 -1.57c-1879.71,-3255.77 -927.82,-7752.04 2192.98,-12632.29 3061.87,-4788.06 8228.04,-9982.73 14844.26,-14734.23 -188.87,-436.98 -370.8,-874.06 -545.45,-1311.09 -8615.35,5908.35 -15011.62,12393.12 -18115.3,19089.98 -2861.87,6175.12 -2911.24,12542.93 708.36,18813.33l0.88 -0.51c3397.63,5884.87 9250.97,8856.25 16246.48,9598.06 8032.34,851.75 17561.41,-1221.03 26642.35,-5199.46 3101.45,-1358.78 6153.97,-2942.7 9079.97,-4711.06 2900.7,-1753.09 5669.5,-3683.32 8230.54,-5750.9 559.08,-451.35 1104.43,-905.82 1635.16,-1362.88 524.55,-451.75 1046.82,-916.71 1566.14,-1394.53 743.72,-684.33 1460.13,-1376.45 2146.72,-2075 687.5,-699.47 1346.06,-1405.03 1973.27,-2115.3 4264.21,-4828.91 7285.54,-10074.15 8371.7,-15370.77 973.69,-4748.22 389.08,-9546.89 -2257.83,-14131.47 -3307.55,-5728.86 -8438.6,-8792.47 -14740.81,-9634.31 -6757.03,-902.59 -14865.06,732.48 -23533.7,4367.5 216.52,401.41 440.54,805.13 671.45,1210.76zm26599.81 32642.31c167.68,-178.21 448.09,-186.76 626.3,-19.09 178.21,167.68 186.76,448.08 19.09,626.3 -561.68,599.41 -1139.03,1185.54 -1730.09,1758.89 -597.6,579.72 -1198.8,1137.16 -1802.58,1673.73 -183,162.88 -463.41,146.57 -626.29,-36.43 -162.88,-183.01 -146.58,-463.42 36.43,-626.3 610.47,-542.52 1202.94,-1091.21 1774.82,-1645.96 578.44,-561.12 1146.43,-1137.9 1702.32,-1731.14zm-5627.37 5198.55c190.67,-153.31 469.54,-123.01 622.84,67.66 153.3,190.67 123.01,469.54 -67.66,622.84 -2336.11,1885.98 -4856.07,3643.26 -7491.07,5235.74 -2653.92,1603.94 -5431.1,3044.29 -8260.98,4284.1 -224.19,97.73 -485.19,-4.8 -582.92,-229 -97.73,-224.2 4.8,-485.2 229,-582.93 2786.4,-1220.76 5528.59,-2643.63 8156.88,-4232.06 2605.66,-1574.76 5093.02,-3308.8 7393.91,-5166.35zm18828.47 -2578.69c-348.28,-1055.72 -763.89,-2143.04 -1244.53,-3256.57 -521.94,-1209.22 -1118.72,-2445.23 -1787.3,-3701.08 -919.12,1469.1 -1959.27,2914.42 -3105,4327.87 2131.04,1093.54 4189.51,1975.44 6136.83,2629.78zm-2393.51 -8015.52c808.36,1479.18 1519.08,2928.87 2127.48,4338.41 601.37,1393.26 1105.17,2752.58 1506.99,4067.76 1571.95,460.31 3061.85,761.95 4447.69,895.77 3342.45,322.77 6061.84,-334.18 7831.87,-2104.21 3081.75,-3081.76 2796.22,-9009.82 -156.66,-16102.9 -3011.88,-7234.81 -8792.81,-15627.69 -16628.86,-23463.75l-0.12 -0.12c-7836.12,-7836.11 -16229.03,-13617.07 -23463.85,-16628.96 -7093.11,-2952.89 -13021.18,-3238.43 -16102.93,-156.68 -2509.35,2509.36 -2785.95,6906 -1207.96,12282.07 1615.15,503.7 3300.83,1160.72 5035.59,1962.17 1743.86,805.67 3545.9,1760.8 5384.26,2856.25 6104.27,-1816.72 11810.59,-2493.14 16818.75,-1824.15 6631.73,885.87 12034.8,4116.14 15523.61,10158.93 2786.92,4827.1 3402.95,9877.26 2378.57,14872.64 -613.55,2991.94 -1816.81,5960.87 -3494.43,8846.77zm-32600.77 -31627.84c-1514.28,-871.87 -3003.8,-1645.9 -4455.51,-2316.59 -1447.27,-668.65 -2850.93,-1232.12 -4198.11,-1685.14 282.5,839.31 607.08,1699.6 972.68,2577.84 494.53,1187.88 1064.05,2407.11 1704.84,3649.88 2023.55,-851.25 4018.71,-1595.19 5976.1,-2225.99zm-22445.72 15351.49c-6422.58,4638.7 -11426.96,9678.72 -14389.87,14312.03 -2881.71,4506.34 -3816.47,8589.5 -2205.05,11466.82l37.05 64.14c1594.95,2762.53 5350.62,4027.99 10392.5,3913.08 1582.72,-2496.92 3737.51,-5103.78 6371.96,-7700.3 2568.96,-2532 5599.46,-5059.17 9004.99,-7469.42 -3769.98,-4652.6 -6936.76,-9603.1 -9211.58,-14586.35zm9886.92 15408.87c-3379.08,2386.91 -6386.35,4892.71 -8935.02,7404.7 -2357.33,2323.4 -4317.52,4647.76 -5811.75,6883.51 768.63,-50.83 1562.91,-130.65 2380.72,-239.79 5714.43,-762.69 12525.64,-2945 19539.05,-6427.49 -642.34,-604.98 -1267.34,-1211.25 -1874.11,-1818.01 -1860.9,-1860.92 -3634.86,-3802.52 -5298.89,-5802.92zm8183.62 7110.5c1279.06,-656.19 2563.34,-1354.85 3847.56,-2095.99l-0.96 -1.57 14.69 -6.32c4854.93,-2802.99 9189.5,-5909.13 12824.86,-9085.58 -610.23,-544.17 -1226.94,-1108.5 -1849.58,-1692.91 -778.24,-730.44 -1534.65,-1462.51 -2267.03,-2194.89 -7933.29,-7933.3 -13794.66,-16451.17 -16857.94,-23809.45 -3122.29,-7499.98 -3344.87,-13847.46 72.31,-17264.64 3417.18,-3417.18 9764.63,-3194.59 17264.63,-72.32 7358.26,3063.28 15876.12,8924.63 23809.41,16857.92l0.16 0.16c7933.26,7933.27 13794.59,16451.11 16857.85,23809.35 3122.28,7499.98 3344.86,13847.41 -72.32,17264.6 -2009.12,2009.12 -5022.25,2761.9 -8685.47,2408.16 -3610.82,-348.68 -7869.98,-1776.79 -12420.59,-4135.69 -224.61,265.02 -452.69,528.9 -684.55,791.46 -647.58,733.34 -1318.56,1452.69 -2010.75,2156.94 -707.33,719.64 -1436.16,1424.2 -2184.2,2112.49 -511.34,470.49 -1042.03,942.47 -1591.12,1415.34 -548.66,472.51 -1103.69,935.27 -1664.3,1387.86 -2101.51,1696.6 -4336.4,3299.6 -6664.31,4787.94 6606.92,3368.04 13300.82,5326.97 19401.01,5250.81 5662.95,-70.71 10819.96,-1902.18 14919.23,-6001.46 6326.15,-6326.14 7797.41,-14094.74 5572.37,-22532.17 -2476.99,-9392.91 -9510.5,-19623.3 -19530.2,-29643 -9564.96,-9564.96 -19491.33,-16395.56 -28653.78,-19185.43 -9059.73,-2758.6 -17375.35,-1549.46 -23836.91,4912.1 -232.45,232.45 -445.3,452.98 -638.78,661.73 -6313.96,6812.05 -7122.37,15714.08 -4363.32,24911.08 2785.1,9283.84 9193.92,18865.18 17260.96,26932.24 709.68,709.69 1420.47,1397.15 2131.07,2061.24zm16692.48 13289.97c-211.62,130.66 -423.95,260.38 -636.96,389.12 -2956.9,1787.04 -6051.41,3391.95 -9204.88,4773.52 -9239.12,4047.74 -18956.54,6154.26 -27175.3,5282.74 -7328.16,-777.09 -13471.59,-3910.12 -17058.43,-10122.7l0 -2.08c-3811.48,-6601.68 -3762.82,-13299.3 -755.05,-19789.22 3211.92,-6930.38 9813.56,-13609.01 18688,-19661.1 -356.12,-951.5 -677.71,-1902.06 -962.03,-2849.78 -2863.91,-9546.57 -2002.54,-18810.93 4604.83,-25939.54 228.63,-246.66 449.94,-477.06 663.75,-690.87 6772.49,-6772.49 15456.23,-8049.56 24898.69,-5174.41 9339.75,2843.86 19418.55,9766.97 29099.29,19447.72 10145.84,10145.83 17277.03,20539.73 19805.03,30126.02 2323.36,8810.3 778.35,16930.94 -5847.18,23556.48 -4309.95,4309.95 -9722.45,6235.43 -15660.39,6309.56 -6456.12,80.61 -13526.28,-2036.11 -20459.37,-5655.46zm795.4 -25191.41c2521.56,-2275.56 4679.84,-4578.1 6408.69,-6822.87 502.92,-653.01 968.75,-1300.31 1396.71,-1939.91 -1935.02,126.92 -4030.94,440.59 -6245.69,935.36 -2350.46,525.09 -4833.89,1254.26 -7400.16,2180.73 547.65,574.88 1106.1,1147.55 1675.77,1717.21 761.35,761.36 1508.99,1486.08 2242.03,2174.09 629.33,590.69 1270.62,1176.02 1922.65,1755.39zm-6632.85 -6488.08c2761.2,-1016.68 5435.76,-1811.43 7963.55,-2376.14 2563.51,-572.68 4977.21,-908.77 7178.84,-999.98 2620.5,-4308.49 3402.59,-8193.24 1807.95,-10955.24 -1542.74,-2672.12 -5120.22,-3943.51 -9930.56,-3918.38 -4938.56,25.79 -11135.38,1421.54 -17768.29,4076.79 2731.16,4615.88 6363.92,9459.93 10748.51,14172.95z"/></g><text x="0" y="100015" fill="#000000" font-size="5px" font-weight="bold" font-family="'Helvetica Neue', Helvetica, Arial-Unicode, Arial, Sans-serif">Created by Oleksandr Panasovskyi</text><text x="0" y="100020" fill="#000000" font-size="5px" font-weight="bold" font-family="'Helvetica Neue', Helvetica, Arial-Unicode, Arial, Sans-serif">from the Noun Project</text></svg>